<svg width="24" height="28" viewBox="0 0 24 28" fill="none" xmlns="http://www.w3.org/2000/svg">
<path d="M12 0.111115C8.17084 0.111115 5.05556 3.22639 5.05556 7.05556V9.83334H3.66667C2.13473 9.83334 0.888893 11.0792 0.888893 12.6111V25.1111C0.888893 26.6431 2.13473 27.8889 3.66667 27.8889H20.3333C21.8653 27.8889 23.1111 26.6431 23.1111 25.1111V12.6111C23.1111 11.0792 21.8653 9.83334 20.3333 9.83334H18.9444V7.05556C18.9444 3.22639 15.8292 0.111115 12 0.111115ZM7.83334 7.05556C7.83334 4.75834 9.70278 2.88889 12 2.88889C14.2972 2.88889 16.1667 4.75834 16.1667 7.05556V9.83334H7.83334V7.05556ZM20.3361 25.1111H13.3889V21.9472C14.2153 21.4653 14.7778 20.5792 14.7778 19.5556C14.7778 18.0236 13.5319 16.7778 12 16.7778C10.4681 16.7778 9.22223 18.0236 9.22223 19.5556C9.22223 20.5778 9.78473 21.4653 10.6111 21.9472V25.1111H3.66667V12.6111H20.3333L20.3361 25.1111Z" fill="black"/>
</svg>
